<svg width="20" height="17" viewBox="0 0 20 17" fill="none" xmlns="http://www.w3.org/2000/svg">
<path d="M1.5547 11.1679C1.09517 10.8616 0.474302 10.9858 0.16795 11.4453C-0.138403 11.9048 -0.0142289 12.5257 0.4453 12.8321L1.5547 11.1679ZM7 16L6.4453 16.8321C6.87689 17.1198 7.45683 17.0297 7.78087 16.6247L7 16ZM19.7809 1.6247C20.1259 1.19343 20.056 0.564141 19.6247 0.219131C19.1934 -0.125878 18.5641 -0.055957 18.2191 0.375305L19.7809 1.6247ZM0.4453 12.8321L6.4453 16.8321L7.5547 15.1679L1.5547 11.1679L0.4453 12.8321ZM7.78087 16.6247L19.7809 1.6247L18.2191 0.375305L6.21913 15.3753L7.78087 16.6247Z" fill="#EADDD5"/>
</svg>
